<svg xmlns="http://www.w3.org/2000/svg" aria-hidden="true" style="position:absolute;width:0;height:0;overflow:hidden"><defs>
<symbol id="icon-codesandbox" viewBox="0 0 32 32"><path d="m2.667 8 13.94-8 13.94 8 .12 15.933L16.607 32l-13.94-8zm2.784 3.308v6.343l4.46 2.48v4.688l5.296 3.061V16.851zm22.318 0-9.756 5.543V27.88l5.296-3.061v-4.685l4.46-2.481zM6.845 8.801l9.737 5.525 9.76-5.573-5.161-2.929-4.547 2.593-4.573-2.624z"/></symbol>
<symbol id="icon-tiktok" viewBox="0 0 32 32"><path d="M16.707.027C18.454 0 20.187.014 21.92 0c.107 2.04.84 4.12 2.333 5.56 1.493 1.48 3.6 2.16 5.653 2.387v5.373c-1.92-.067-3.853-.467-5.6-1.293-.76-.347-1.467-.787-2.16-1.24-.013 3.893.013 7.787-.027 11.667-.107 1.867-.72 3.72-1.8 5.253-1.747 2.56-4.773 4.227-7.88 4.28-1.907.107-3.813-.413-5.44-1.373-2.693-1.587-4.587-4.493-4.867-7.613a24.42 24.42 0 0 1-.013-1.987 10.004 10.004 0 0 1 3.44-6.613c2.213-1.92 5.307-2.84 8.2-2.293.027 1.973-.053 3.947-.053 5.92-1.32-.427-2.867-.307-4.027.493a4.631 4.631 0 0 0-1.813 2.333c-.28.68-.2 1.427-.187 2.147.32 2.187 2.427 4.027 4.667 3.827 1.493-.013 2.92-.88 3.693-2.147.253-.44.533-.893.547-1.413.133-2.387.08-4.76.093-7.147.013-5.373-.013-10.733.027-16.093z"/></symbol>
<symbol id="icon-phone" viewBox="0 0 32 32"><path d="M22 20c-2 2-2 4-4 4s-4-2-6-4-4-4-4-6 2-2 4-4-4-8-6-8-6 6-6 6c0 4 4.109 12.109 8 16s12 8 16 8c0 0 6-4 6-6s-6-8-8-6z"/></symbol>
<symbol id="icon-envelop" viewBox="0 0 32 32"><path d="M29 4H3C1.35 4 0 5.35 0 7v20c0 1.65 1.35 3 3 3h26c1.65 0 3-1.35 3-3V7c0-1.65-1.35-3-3-3zM12.461 17.199 4 23.789V8.113l8.461 9.086zM5.512 8h20.976L16 15.875 5.512 8zm7.278 9.553L16 21l3.21-3.447L25.79 26H6.211l6.58-8.447zm6.749-.354L28 8.113v15.676l-8.461-6.59z"/></symbol>
<symbol id="icon-compass2" viewBox="0 0 32 32"><path d="M16 0C7.163 0 0 7.163 0 16s7.163 16 16 16 16-7.163 16-16S24.837 0 16 0zM3 16C3 8.82 8.82 3 16 3c3.424 0 6.538 1.325 8.86 3.488L12 12 6.488 24.86A12.952 12.952 0 0 1 3 16zm15.286 2.286-8.003 3.43 3.43-8.003 4.573 4.573zM16 29a12.955 12.955 0 0 1-8.86-3.488L20 20l5.512-12.86A12.952 12.952 0 0 1 29 16c0 7.18-5.82 13-13 13z"/></symbol>
<symbol id="icon-map" viewBox="0 0 32 32"><path d="m0 6 10-4v24L0 30zM12 1l10 6v23l-10-5zM24 7l8-6v24l-8 6z"/></symbol>
<symbol id="icon-database" viewBox="0 0 32 32"><path d="M16 0C7.163 0 0 2.239 0 5v4c0 2.761 7.163 5 16 5s16-2.239 16-5V5c0-2.761-7.163-5-16-5z"/><path d="M16 17c-8.837 0-16-2.239-16-5v6c0 2.761 7.163 5 16 5s16-2.239 16-5v-6c0 2.761-7.163 5-16 5z"/><path d="M16 26c-8.837 0-16-2.239-16-5v6c0 2.761 7.163 5 16 5s16-2.239 16-5v-6c0 2.761-7.163 5-16 5z"/></symbol>
<symbol id="icon-hour-glass" viewBox="0 0 32 32"><path d="M22.781 16C27.086 13.271 30 8.025 30 2c0-.677-.037-1.345-.109-2H2.108a18.31 18.31 0 0 0-.109 2c0 6.025 2.914 11.271 7.219 14-4.305 2.729-7.219 7.975-7.219 14 0 .677.037 1.345.109 2h27.783A18.31 18.31 0 0 0 30 30c0-6.025-2.914-11.271-7.219-14zM5 30c0-5.841 2.505-10.794 7-12.428v-3.143C7.505 12.795 5 7.842 5 2.001h22c0 5.841-2.505 10.794-7 12.428v3.143c4.495 1.634 7 6.587 7 12.428H5zm14.363-9.075C17.124 19.655 17 18.007 17 17.007V15c0-1 .119-2.654 2.367-3.927C20.57 10.374 21.611 9.312 22.4 8H9.601c.79 1.313 1.832 2.376 3.036 3.075C14.876 12.345 15 13.993 15 14.993V17c0 1-.119 2.654-2.367 3.927-2.269 1.318-3.961 3.928-4.472 7.073h15.677c-.511-3.147-2.204-5.758-4.475-7.075z"/></symbol>
<symbol id="icon-menu" viewBox="0 0 32 32"><path d="M2 6h28v6H2zm0 8h28v6H2zm0 8h28v6H2z"/></symbol>
<symbol id="icon-google" viewBox="0 0 32 32"><path d="M16.319 13.713V19.2h9.075c-.369 2.356-2.744 6.9-9.075 6.9C10.856 26.1 6.4 21.575 6.4 16s4.456-10.1 9.919-10.1c3.106 0 5.188 1.325 6.375 2.469l4.344-4.181C24.25 1.576 20.638 0 16.319 0c-8.844 0-16 7.156-16 16s7.156 16 16 16c9.231 0 15.363-6.494 15.363-15.631 0-1.05-.113-1.85-.25-2.65l-15.113-.006z"/></symbol>
<symbol id="icon-facebook" viewBox="0 0 32 32"><path d="M19 6h5V0h-5c-3.86 0-7 3.14-7 7v3H8v6h4v16h6V16h5l1-6h-6V7c0-.542.458-1 1-1z"/></symbol>
<symbol id="icon-instagram" viewBox="0 0 32 32"><path d="M16 2.881c4.275 0 4.781.019 6.462.094 1.563.069 2.406.331 2.969.55a4.952 4.952 0 0 1 1.837 1.194 5.015 5.015 0 0 1 1.2 1.838c.219.563.481 1.412.55 2.969.075 1.688.094 2.194.094 6.463s-.019 4.781-.094 6.463c-.069 1.563-.331 2.406-.55 2.969a4.94 4.94 0 0 1-1.194 1.837 5.02 5.02 0 0 1-1.837 1.2c-.563.219-1.413.481-2.969.55-1.688.075-2.194.094-6.463.094s-4.781-.019-6.463-.094c-1.563-.069-2.406-.331-2.969-.55a4.952 4.952 0 0 1-1.838-1.194 5.02 5.02 0 0 1-1.2-1.837c-.219-.563-.481-1.413-.55-2.969-.075-1.688-.094-2.194-.094-6.463s.019-4.781.094-6.463c.069-1.563.331-2.406.55-2.969a4.964 4.964 0 0 1 1.194-1.838 5.015 5.015 0 0 1 1.838-1.2c.563-.219 1.412-.481 2.969-.55 1.681-.075 2.188-.094 6.463-.094zM16 0c-4.344 0-4.887.019-6.594.094-1.7.075-2.869.35-3.881.744-1.056.412-1.95.956-2.837 1.85a7.833 7.833 0 0 0-1.85 2.831C.444 6.538.169 7.7.094 9.4.019 11.113 0 11.656 0 16s.019 4.887.094 6.594c.075 1.7.35 2.869.744 3.881.413 1.056.956 1.95 1.85 2.837a7.82 7.82 0 0 0 2.831 1.844c1.019.394 2.181.669 3.881.744 1.706.075 2.25.094 6.594.094s4.888-.019 6.594-.094c1.7-.075 2.869-.35 3.881-.744 1.05-.406 1.944-.956 2.831-1.844s1.438-1.781 1.844-2.831c.394-1.019.669-2.181.744-3.881.075-1.706.094-2.25.094-6.594s-.019-4.887-.094-6.594c-.075-1.7-.35-2.869-.744-3.881a7.506 7.506 0 0 0-1.831-2.844A7.82 7.82 0 0 0 26.482.843C25.463.449 24.301.174 22.601.099c-1.712-.081-2.256-.1-6.6-.1z"/><path d="M16 7.781c-4.537 0-8.219 3.681-8.219 8.219s3.681 8.219 8.219 8.219 8.219-3.681 8.219-8.219A8.221 8.221 0 0 0 16 7.781zm0 13.55a5.331 5.331 0 1 1 0-10.663 5.331 5.331 0 0 1 0 10.663zM26.462 7.456a1.919 1.919 0 1 1-3.838 0 1.919 1.919 0 0 1 3.838 0z"/></symbol>
</defs></svg>